<!DOCTYPE svg PUBLIC "-//W3C//DTD SVG 1.1//EN" "http://www.w3.org/Graphics/SVG/1.1/DTD/svg11.dtd">
<!-- Uploaded to: SVG Repo, www.svgrepo.com, Transformed by: SVG Repo Mixer Tools -->
<svg fill="#fafdff" height="170px" width="170px" version="1.1" id="Layer_1" xmlns="http://www.w3.org/2000/svg" xmlns:xlink="http://www.w3.org/1999/xlink" viewBox="-238.08 -238.08 972.16 972.16" xml:space="preserve" stroke="#fafdff" stroke-width="0.004960000000000001">
<g id="SVGRepo_bgCarrier" stroke-width="0">
<rect x="-238.08" y="-238.08" width="972.16" height="972.16" rx="486.08" fill="#ea580c" strokewidth="0"/>
</g>
<g id="SVGRepo_tracerCarrier" stroke-linecap="round" stroke-linejoin="round"/>
<g id="SVGRepo_iconCarrier"> <g> <g> <g> <path d="M352.232,22.344c-38.4,0-74.504,14.952-101.656,42.112L248,67.032l-2.576-2.576 c-27.152-27.16-63.256-42.112-101.656-42.112C64.496,22.344,0,86.84,0,166.112c0,38.4,14.952,74.504,42.112,101.656L248,473.656 l205.888-205.888C481.048,240.616,496,204.512,496,166.112C496,86.84,431.504,22.344,352.232,22.344z M442.576,256.456 L248,451.032L53.424,256.456C29.288,232.32,16,200.232,16,166.112C16,95.664,73.32,38.344,143.768,38.344 c34.128,0,66.208,13.288,90.344,37.424L248,89.656l13.888-13.888c24.136-24.136,56.224-37.424,90.344-37.424 C422.68,38.344,480,95.664,480,166.112C480,200.232,466.712,232.32,442.576,256.456z"/> <path d="M248,110.344c-70.576,0-128,57.424-128,128s57.424,128,128,128s128-57.424,128-128S318.576,110.344,248,110.344z M220.472,129.912c-9.92,9.712-21.096,23.416-29.784,41.576c-10.392-4.76-16.872-10.016-20.456-13.56 C184.048,144.568,201.28,134.792,220.472,129.912z M159.6,169.816c4.912,4.688,13.008,10.912,25.104,16.384 c-4.512,12.864-7.56,27.552-8.336,44.136H136.4C138.024,207.632,146.408,186.8,159.6,169.816z M136.408,246.344h39.968 c0.776,16.584,3.824,31.272,8.336,44.136c-12.088,5.48-20.192,11.696-25.104,16.384 C146.408,289.888,138.024,269.056,136.408,246.344z M170.232,318.76c3.584-3.536,10.064-8.792,20.456-13.56 c8.688,18.152,19.864,31.864,29.784,41.576C201.28,341.896,184.04,332.12,170.232,318.76z M240,342.864 c-9.88-8.088-23.84-22.128-34.192-43.136c9.336-2.648,20.624-4.592,34.192-5.16V342.864z M240,246.344v32.24 c-15.944,0.624-29.264,3.008-40.288,6.328c-3.92-11.264-6.592-24.104-7.344-38.576H240V246.344z M240,230.344h-47.632 c0.752-14.472,3.424-27.312,7.344-38.576c11.024,3.32,24.344,5.712,40.288,6.336V230.344z M240,182.12 c-13.568-0.568-24.856-2.504-34.192-5.16c10.36-21.016,24.32-35.064,34.192-43.144V182.12z M325.768,157.92 c-3.584,3.544-10.064,8.8-20.456,13.56c-8.688-18.152-19.864-31.856-29.784-41.576C294.72,134.784,311.96,144.56,325.768,157.92z M256,133.824c9.88,8.088,23.84,22.128,34.192,43.136c-9.336,2.648-20.624,4.592-34.192,5.16V133.824z M256,230.344v-32.24 c15.944-0.624,29.264-3.008,40.288-6.328c3.92,11.264,6.592,24.104,7.344,38.576H256V230.344z M256,246.344h47.632 c-0.752,14.472-3.424,27.312-7.344,38.576c-11.024-3.32-24.344-5.712-40.288-6.336V246.344z M256,342.872v-48.304 c13.568,0.568,24.856,2.504,34.192,5.16C279.832,320.744,265.872,334.792,256,342.872z M275.528,346.776 c9.92-9.712,21.096-23.416,29.784-41.576c10.392,4.76,16.872,10.016,20.456,13.56C311.952,332.12,294.72,341.896,275.528,346.776 z M336.4,306.872c-4.912-4.688-13.008-10.912-25.104-16.384c4.512-12.864,7.56-27.552,8.336-44.136H359.6 C357.976,269.056,349.592,289.888,336.4,306.872z M319.632,230.352v-0.008c-0.776-16.584-3.824-31.272-8.336-44.136 c12.088-5.48,20.192-11.696,25.104-16.384c13.192,16.984,21.584,37.808,23.2,60.528H319.632z"/> </g> </g> </g> </g>
</svg>